<mxfile host="app.diagrams.net" modified="2021-11-09T04:49:19.575Z" agent="5.0 (Windows NT 10.0; WOW64) AppleWebKit/537.36 (KHTML, like Gecko) Chrome/86.0.4240.198 Safari/537.36" etag="gZSkOZwPiY1G7hFekqXD" version="15.7.0" type="github">
  <diagram id="JFT-c8hmfohcsFkSbyDH" name="Page-1">
    <mxGraphModel dx="999" dy="659" grid="1" gridSize="10" guides="1" tooltips="1" connect="1" arrows="1" fold="1" page="1" pageScale="1" pageWidth="827" pageHeight="1169" math="0" shadow="0">
      <root>
        <mxCell id="0" />
        <mxCell id="1" parent="0" />
        <mxCell id="rVw1OEeZTjNzLkuWisMM-3" value="" style="edgeStyle=orthogonalEdgeStyle;rounded=0;orthogonalLoop=1;jettySize=auto;html=1;" edge="1" parent="1" source="rVw1OEeZTjNzLkuWisMM-1" target="rVw1OEeZTjNzLkuWisMM-2">
          <mxGeometry relative="1" as="geometry" />
        </mxCell>
        <mxCell id="rVw1OEeZTjNzLkuWisMM-1" value="WFServerBase::Start()" style="rounded=0;whiteSpace=wrap;html=1;" vertex="1" parent="1">
          <mxGeometry x="329" y="1010" width="170" height="60" as="geometry" />
        </mxCell>
        <mxCell id="rVw1OEeZTjNzLkuWisMM-7" value="" style="edgeStyle=orthogonalEdgeStyle;rounded=0;orthogonalLoop=1;jettySize=auto;html=1;" edge="1" parent="1" source="rVw1OEeZTjNzLkuWisMM-2" target="rVw1OEeZTjNzLkuWisMM-5">
          <mxGeometry relative="1" as="geometry" />
        </mxCell>
        <mxCell id="rVw1OEeZTjNzLkuWisMM-2" value="WFServerBase::init()" style="rounded=0;whiteSpace=wrap;html=1;" vertex="1" parent="1">
          <mxGeometry x="354" y="860" width="120" height="60" as="geometry" />
        </mxCell>
        <mxCell id="rVw1OEeZTjNzLkuWisMM-5" value="CommService::init()" style="rounded=0;whiteSpace=wrap;html=1;" vertex="1" parent="1">
          <mxGeometry x="250" y="710" width="120" height="60" as="geometry" />
        </mxCell>
        <mxCell id="rVw1OEeZTjNzLkuWisMM-6" value="" style="rounded=0;whiteSpace=wrap;html=1;" vertex="1" parent="1">
          <mxGeometry x="590" y="130" width="120" height="60" as="geometry" />
        </mxCell>
        <mxCell id="rVw1OEeZTjNzLkuWisMM-9" style="edgeStyle=orthogonalEdgeStyle;rounded=0;orthogonalLoop=1;jettySize=auto;html=1;exitX=0.5;exitY=1;exitDx=0;exitDy=0;endArrow=none;endFill=0;startArrow=classic;startFill=1;" edge="1" parent="1" source="rVw1OEeZTjNzLkuWisMM-8">
          <mxGeometry relative="1" as="geometry">
            <mxPoint x="420" y="860" as="targetPoint" />
          </mxGeometry>
        </mxCell>
        <mxCell id="rVw1OEeZTjNzLkuWisMM-12" value="" style="edgeStyle=orthogonalEdgeStyle;rounded=0;orthogonalLoop=1;jettySize=auto;html=1;startArrow=none;startFill=0;endArrow=classic;endFill=1;" edge="1" parent="1" source="rVw1OEeZTjNzLkuWisMM-8" target="rVw1OEeZTjNzLkuWisMM-10">
          <mxGeometry relative="1" as="geometry" />
        </mxCell>
        <mxCell id="rVw1OEeZTjNzLkuWisMM-8" value="WFGlobal::get_scheduler()" style="rounded=0;whiteSpace=wrap;html=1;" vertex="1" parent="1">
          <mxGeometry x="440" y="710" width="210" height="60" as="geometry" />
        </mxCell>
        <mxCell id="rVw1OEeZTjNzLkuWisMM-10" value="__CommManager::get_instance()::get_scheduler()" style="rounded=0;whiteSpace=wrap;html=1;" vertex="1" parent="1">
          <mxGeometry x="386.25" y="570" width="317.5" height="60" as="geometry" />
        </mxCell>
      </root>
    </mxGraphModel>
  </diagram>
</mxfile>
